<svg width="1024" height="1024" viewBox="0 0 1024 1024" fill="none" xmlns="http://www.w3.org/2000/svg">
<rect width="1024" height="1024" fill="white"/>
<path fill-rule="evenodd" clip-rule="evenodd" d="M692.718 163.246C690.596 163.196 688.495 163.682 686.611 164.659L544.777 239.967L408.597 183.688C406.041 182.633 403.209 182.447 400.537 183.158C397.866 183.87 395.501 185.439 393.808 187.625L379.423 206.2C378.343 207.593 377.567 209.198 377.146 210.91C376.724 212.622 376.666 214.403 376.976 216.139C377.285 217.875 377.954 219.527 378.941 220.988C379.927 222.449 381.209 223.687 382.704 224.623L502.757 299.603L497.432 433.335L314.361 505.69C311.322 506.879 308.862 509.2 307.497 512.165C306.132 515.129 305.969 518.507 307.042 521.589L320.973 561.338C321.544 562.963 322.441 564.454 323.61 565.719C324.778 566.983 326.194 567.996 327.768 568.693C329.343 569.391 331.043 569.758 332.765 569.774C334.487 569.789 336.194 569.452 337.781 568.783L539.932 483.658L724.82 579.686C727.72 581.196 731.092 581.522 734.228 580.594C737.363 579.667 740.016 577.559 741.628 574.714L757.275 547.054C758.852 544.269 759.313 540.989 758.563 537.878C757.813 534.767 755.909 532.057 753.237 530.296L587.63 421.524L589.22 299.855L725.653 221.619C727.221 220.725 728.579 219.505 729.635 218.041C730.691 216.577 731.421 214.903 731.775 213.133C732.129 211.362 732.099 209.537 731.687 207.779C731.276 206.021 730.491 204.373 729.388 202.944L702.535 168.142C701.37 166.644 699.883 165.428 698.183 164.585C696.483 163.742 694.615 163.292 692.718 163.271V163.246ZM689.033 191.966L700.567 206.906L570.418 281.533C568.516 282.619 566.93 284.181 565.815 286.066C564.7 287.951 564.094 290.094 564.058 292.284L562.342 428.06C562.315 430.177 562.821 432.266 563.813 434.136C564.806 436.006 566.253 437.597 568.021 438.761L729.489 544.858L725.653 551.672L546.266 458.496C544.626 457.648 542.821 457.17 540.976 457.096C539.132 457.022 537.293 457.354 535.591 458.067L340.33 540.265L334.904 524.694L514.341 453.777C516.619 452.877 518.587 451.334 520.003 449.335C521.419 447.337 522.223 444.969 522.316 442.521L528.247 293.268C528.33 291.047 527.826 288.844 526.784 286.881C525.743 284.918 524.202 283.264 522.316 282.088L408.244 210.818L540.613 265.532C542.335 266.238 544.192 266.555 546.051 266.459C547.909 266.363 549.724 265.857 551.364 264.977L689.033 191.966Z" fill="#111111"/>
<path fill-rule="evenodd" clip-rule="evenodd" d="M544.003 292.075C543.538 292.12 543.088 292.267 542.686 292.508C542.285 292.748 541.941 293.074 541.682 293.463L513.163 334.272C512.926 334.613 512.759 334.998 512.671 335.404C512.582 335.81 512.575 336.229 512.649 336.638C512.723 337.047 512.876 337.438 513.101 337.787C513.326 338.137 513.617 338.439 513.958 338.676C514.3 338.912 514.684 339.08 515.091 339.168C515.497 339.256 515.916 339.264 516.325 339.19C516.734 339.116 517.124 338.963 517.474 338.738C517.823 338.513 518.125 338.222 518.362 337.881L546.855 297.072C547.213 296.581 547.421 295.996 547.455 295.39C547.488 294.783 547.346 294.179 547.045 293.652C546.743 293.124 546.296 292.694 545.757 292.414C545.217 292.135 544.608 292.017 544.003 292.075ZM540.142 325.893C539.632 325.918 539.136 326.067 538.697 326.327C538.257 326.586 537.887 326.948 537.618 327.382L513.239 365.818C512.989 366.166 512.812 366.561 512.719 366.979C512.626 367.397 512.62 367.83 512.699 368.25C512.779 368.671 512.944 369.071 513.184 369.426C513.423 369.782 513.733 370.084 514.093 370.316C514.453 370.547 514.857 370.703 515.279 370.774C515.702 370.844 516.134 370.828 516.55 370.726C516.966 370.624 517.357 370.438 517.699 370.18C518.041 369.922 518.327 369.597 518.539 369.225L542.969 330.789C543.294 330.3 543.477 329.729 543.495 329.141C543.514 328.554 543.368 327.973 543.074 327.464C542.781 326.955 542.35 326.538 541.832 326.26C541.314 325.983 540.729 325.856 540.142 325.893ZM536.003 360.594C535.493 360.62 534.998 360.768 534.558 361.028C534.118 361.287 533.748 361.649 533.479 362.083L511.069 397.163C510.669 397.864 510.553 398.693 510.745 399.477C510.938 400.262 511.424 400.943 512.103 401.38C512.783 401.816 513.604 401.976 514.397 401.825C515.191 401.675 515.896 401.225 516.369 400.57L538.779 365.49C539.102 365.004 539.283 364.439 539.304 363.856C539.324 363.273 539.183 362.696 538.895 362.189C538.608 361.682 538.185 361.265 537.675 360.983C537.164 360.701 536.586 360.567 536.003 360.594ZM532.949 392.443C532.131 392.553 531.388 392.979 530.88 393.63L509.933 419.624C509.623 419.937 509.382 420.311 509.225 420.722C509.068 421.134 508.999 421.574 509.023 422.013C509.046 422.453 509.162 422.883 509.361 423.276C509.561 423.668 509.841 424.015 510.182 424.292C510.524 424.57 510.92 424.774 511.345 424.889C511.77 425.005 512.214 425.03 512.65 424.964C513.085 424.897 513.502 424.74 513.873 424.503C514.244 424.266 514.561 423.953 514.804 423.586L535.801 397.592C536.21 397.103 536.461 396.502 536.521 395.868C536.582 395.234 536.449 394.597 536.141 394.04C535.832 393.483 535.362 393.032 534.792 392.747C534.223 392.462 533.58 392.356 532.949 392.443ZM529.265 416.192C528.454 416.288 527.712 416.695 527.195 417.327L512.053 435.17C511.785 435.487 511.581 435.853 511.454 436.248C511.327 436.643 511.279 437.059 511.313 437.473C511.347 437.887 511.463 438.29 511.652 438.659C511.842 439.028 512.102 439.356 512.419 439.624C512.735 439.893 513.102 440.096 513.497 440.223C513.892 440.35 514.308 440.398 514.722 440.364C515.136 440.33 515.538 440.215 515.908 440.025C516.277 439.836 516.605 439.575 516.873 439.259L531.965 421.416C532.386 420.939 532.653 420.346 532.731 419.715C532.809 419.085 532.694 418.445 532.402 417.88C532.11 417.315 531.655 416.852 531.095 416.551C530.535 416.249 529.897 416.124 529.265 416.192Z" fill="#111111"/>
<path fill-rule="evenodd" clip-rule="evenodd" d="M566.295 110.401C553.878 107.474 541.537 109.467 530.912 113.303C521.827 116.584 511.101 121.682 504.11 132.433C494.066 149.14 493.334 164.687 494.823 181.419C497.069 192.523 503.151 203.224 513.902 209.76H513.953C528.161 218.366 544.439 217.836 557.866 214.934H557.916C572.04 211.86 584.82 204.374 594.409 193.558C602.142 185.024 606.774 174.133 607.558 162.642C608.263 150.702 604.634 138.908 597.337 129.43C589.362 119.158 577.954 113.026 566.32 110.3L566.295 110.401ZM560.541 134.957C567.102 136.471 573.866 140.509 577.349 145.001C580.554 149.115 582.623 155.904 582.321 161.38C582.068 166.302 579.292 172.611 575.481 176.952C569.388 183.648 561.406 188.339 552.591 190.403C543.253 192.422 532.729 191.741 527.026 188.283C524.098 186.517 520.514 181.116 519.581 176.498C517.783 166.053 519.808 155.311 525.284 146.238C527.354 143.058 532.956 139.374 539.493 137.026C546.635 134.452 554.585 133.544 560.541 134.957Z" fill="#111111"/>
<path fill-rule="evenodd" clip-rule="evenodd" d="M527.093 156.641C526.521 156.661 525.965 156.835 525.485 157.147C525.005 157.458 524.618 157.894 524.367 158.408L511.849 183.594C511.622 183.967 511.475 184.384 511.417 184.817C511.359 185.25 511.392 185.69 511.513 186.11C511.634 186.529 511.841 186.919 512.121 187.255C512.401 187.59 512.747 187.864 513.138 188.059C513.529 188.253 513.957 188.365 514.393 188.386C514.829 188.407 515.265 188.337 515.673 188.18C516.081 188.024 516.452 187.785 516.763 187.477C517.073 187.17 517.317 186.802 517.477 186.396L530.045 161.209C530.298 160.717 530.417 160.167 530.391 159.615C530.364 159.062 530.192 158.526 529.893 158.061C529.594 157.596 529.178 157.217 528.686 156.964C528.195 156.71 527.645 156.59 527.093 156.616V156.641ZM534.083 163.985C533.515 164.018 532.966 164.205 532.495 164.525C532.024 164.845 531.649 165.286 531.408 165.802L519.547 190.686C519.185 191.442 519.139 192.311 519.418 193.102C519.698 193.892 520.279 194.539 521.036 194.901C521.792 195.262 522.661 195.308 523.451 195.029C524.242 194.75 524.889 194.168 525.25 193.412L537.137 168.502C537.383 168.004 537.493 167.45 537.456 166.896C537.419 166.342 537.236 165.807 536.926 165.346C536.616 164.886 536.19 164.515 535.691 164.271C535.192 164.028 534.637 163.92 534.083 163.96V163.985ZM542.058 172.667C541.494 172.704 540.951 172.893 540.485 173.213C540.019 173.532 539.647 173.971 539.408 174.484L531.03 192.478C530.815 192.857 530.682 193.276 530.637 193.709C530.593 194.143 530.638 194.58 530.771 194.995C530.904 195.41 531.122 195.793 531.41 196.119C531.698 196.446 532.051 196.709 532.446 196.892C532.841 197.076 533.27 197.176 533.705 197.185C534.141 197.195 534.573 197.114 534.976 196.949C535.379 196.783 535.743 196.535 536.045 196.222C536.348 195.909 536.582 195.536 536.733 195.128L545.112 177.209C545.356 176.713 545.466 176.162 545.43 175.61C545.394 175.058 545.214 174.525 544.907 174.065C544.6 173.605 544.178 173.234 543.682 172.988C543.187 172.743 542.635 172.632 542.084 172.667H542.058ZM552.456 176.881C551.834 176.931 551.241 177.163 550.752 177.549C550.262 177.936 549.898 178.458 549.705 179.052L543.547 196.819C543.394 197.214 543.322 197.636 543.335 198.059C543.348 198.483 543.447 198.899 543.625 199.284C543.803 199.669 544.056 200.013 544.37 200.298C544.684 200.583 545.053 200.801 545.453 200.94C545.853 201.079 546.277 201.136 546.7 201.108C547.123 201.079 547.536 200.966 547.914 200.774C548.292 200.583 548.627 200.317 548.901 199.993C549.174 199.669 549.379 199.293 549.503 198.888L555.661 181.121C555.845 180.625 555.901 180.09 555.824 179.566C555.746 179.042 555.538 178.546 555.219 178.124C554.9 177.702 554.479 177.366 553.997 177.149C553.514 176.932 552.984 176.84 552.456 176.881Z" fill="#111111"/>
<path fill-rule="evenodd" clip-rule="evenodd" d="M641.087 586.612C558.258 581.842 474.672 581.867 391.768 589.463C325.697 595.52 250.843 591.306 187.119 625.452C174.778 632.064 158.172 640.67 144.519 652.178C137.705 657.907 131.496 664.469 127.181 672.469C122.489 680.951 120.917 690.81 122.739 700.331C124.632 709.618 130.335 717.24 137.048 722.111C143.736 726.956 151.282 729.682 158.828 731.675C173.92 735.713 189.946 737 200.318 739.499H200.369C260.761 754.137 322.668 751.058 381.824 752.042C461.625 753.379 542.283 753.253 622.361 743.714C690.93 735.537 760.989 725.316 827.413 701.567C836.095 698.438 851.313 696.091 865.32 691.397C872.336 689.05 879.276 686.097 885.333 680.898C891.39 675.699 896.16 667.27 896.336 657.983C896.341 653.526 895.443 649.115 893.695 645.016C891.946 640.917 889.385 637.215 886.166 634.133C880.26 628.43 873.244 624.947 866.052 622.146C851.692 616.543 835.843 613.59 826.076 610.309C765.633 589.993 701.555 590.069 641.087 586.586V586.612ZM639.673 611.798C701.076 615.332 762.73 615.66 818 634.234C830.719 638.499 845.912 641.376 856.891 645.667C862.367 647.812 866.582 650.285 868.676 652.304C870.771 654.323 871.124 655.08 871.099 657.528C871.049 659.724 870.847 660.052 868.878 661.768C865.378 664.292 861.479 666.212 857.345 667.447C846.543 671.056 831.678 673.226 818.883 677.794C755.613 700.432 687.448 710.501 619.357 718.603C541.223 727.915 461.7 728.142 382.203 726.805C321.987 725.795 261.998 728.445 206.299 714.943C192.621 711.662 177.024 710.4 165.289 707.271C160.526 706.173 155.985 704.269 151.863 701.643C149.087 699.624 148.027 698.211 147.446 695.309C146.664 691.472 147.269 688.444 149.415 684.457C151.56 680.469 155.522 675.926 160.797 671.485C171.346 662.601 186.539 654.399 199.006 647.736C254.477 618.007 325.495 620.884 394.09 614.6C475.48 607.155 557.804 607.104 639.648 611.798H639.673Z" fill="#111111"/>
<path fill-rule="evenodd" clip-rule="evenodd" d="M138.462 693.489C135.127 693.672 132.001 695.169 129.768 697.653C127.535 700.136 126.378 703.404 126.55 706.739L132.708 868.358C132.839 871.661 134.261 874.78 136.668 877.045C139.075 879.311 142.274 880.541 145.579 880.472L186.287 879.589C187.968 879.55 189.625 879.176 191.16 878.488C192.694 877.8 194.076 876.812 195.223 875.582C196.371 874.353 197.261 872.906 197.841 871.327C198.421 869.749 198.68 868.07 198.602 866.39L192.394 725.818C192.393 724.114 192.047 722.428 191.376 720.861C190.705 719.294 189.724 717.88 188.492 716.702C187.26 715.525 185.802 714.61 184.206 714.011C182.61 713.413 180.91 713.144 179.207 713.221C177.504 713.298 175.835 713.718 174.3 714.458C172.764 715.198 171.394 716.24 170.273 717.524C169.152 718.807 168.302 720.304 167.775 721.925C167.248 723.546 167.055 725.257 167.207 726.954L172.81 854.655L157.44 855.008L151.737 705.755C151.692 704.071 151.31 702.413 150.615 700.879C149.919 699.345 148.923 697.966 147.686 696.823C146.449 695.68 144.995 694.796 143.411 694.223C141.827 693.651 140.144 693.401 138.462 693.489ZM485.525 726.651C482.194 726.866 479.084 728.391 476.875 730.893C474.666 733.395 473.538 736.67 473.739 740.002L481.638 904.599C481.726 906.296 482.156 907.958 482.902 909.484C483.648 911.011 484.694 912.371 485.979 913.484C487.263 914.596 488.759 915.438 490.377 915.958C491.994 916.478 493.7 916.666 495.392 916.511L541.476 912.271C544.702 911.97 547.688 910.439 549.816 907.996C551.945 905.553 553.052 902.385 552.908 899.148L545.917 738.917C545.916 737.212 545.57 735.526 544.899 733.959C544.229 732.392 543.248 730.978 542.015 729.8C540.783 728.623 539.325 727.708 537.729 727.109C536.133 726.511 534.433 726.242 532.73 726.319C531.028 726.396 529.358 726.817 527.823 727.556C526.288 728.296 524.918 729.339 523.796 730.622C522.675 731.905 521.825 733.403 521.298 735.023C520.771 736.644 520.578 738.355 520.731 740.052L527.191 888.271L506.169 890.189L498.926 738.816C498.868 737.131 498.474 735.476 497.766 733.946C497.058 732.417 496.051 731.045 494.804 729.911C493.558 728.777 492.096 727.905 490.507 727.345C488.917 726.785 487.232 726.549 485.55 726.651H485.525ZM883.693 643.04C881.926 642.956 880.162 643.244 878.514 643.886C876.866 644.527 875.371 645.508 874.127 646.764C872.882 648.021 871.915 649.525 871.29 651.179C870.664 652.833 870.393 654.6 870.494 656.365L876.273 803.145L856.209 803.398L855.2 689.477C855.166 686.13 853.805 682.934 851.415 680.591C849.025 678.248 845.802 676.951 842.455 676.984C839.108 677.018 835.912 678.379 833.569 680.769C831.227 683.16 829.929 686.382 829.963 689.729L831.073 816.319C831.086 817.983 831.428 819.627 832.079 821.158C832.73 822.689 833.678 824.076 834.867 825.24C836.056 826.403 837.464 827.32 839.008 827.937C840.553 828.554 842.205 828.86 843.868 828.837L889.522 828.206C891.21 828.187 892.877 827.83 894.424 827.155C895.971 826.481 897.367 825.503 898.53 824.279C899.692 823.056 900.597 821.611 901.192 820.031C901.786 818.452 902.057 816.769 901.99 815.083L895.731 655.381C895.657 652.185 894.374 649.136 892.139 646.85C889.905 644.564 886.886 643.212 883.693 643.065V643.04Z" fill="#111111"/>
<path fill-rule="evenodd" clip-rule="evenodd" d="M256.471 647.3C255.964 647.326 255.47 647.473 255.032 647.729L175.384 695.049C175.027 695.263 174.717 695.545 174.469 695.879C174.222 696.212 174.043 696.592 173.942 696.995C173.841 697.398 173.821 697.817 173.882 698.228C173.943 698.639 174.085 699.034 174.298 699.39C174.512 699.746 174.794 700.057 175.128 700.304C175.462 700.552 175.841 700.731 176.244 700.831C176.647 700.932 177.066 700.953 177.477 700.892C177.888 700.83 178.283 700.689 178.639 700.475L258.288 653.155C258.909 652.799 259.39 652.241 259.652 651.575C259.914 650.909 259.942 650.173 259.73 649.489C259.519 648.805 259.081 648.213 258.489 647.811C257.896 647.408 257.185 647.22 256.471 647.275V647.3ZM261.216 668.575C260.708 668.601 260.215 668.748 259.777 669.004L211.675 697.396C211.297 697.595 210.964 697.869 210.695 698.201C210.426 698.533 210.227 698.916 210.111 699.327C209.994 699.738 209.963 700.168 210.018 700.592C210.072 701.015 210.213 701.423 210.43 701.791C210.647 702.159 210.937 702.479 211.281 702.731C211.626 702.984 212.018 703.163 212.434 703.26C212.85 703.356 213.281 703.367 213.702 703.292C214.122 703.217 214.523 703.057 214.88 702.822L262.982 674.43C263.584 674.069 264.047 673.517 264.3 672.862C264.552 672.208 264.579 671.487 264.377 670.816C264.174 670.144 263.753 669.559 263.181 669.153C262.608 668.747 261.917 668.544 261.216 668.575ZM275.399 685.913C274.89 685.946 274.396 686.102 273.96 686.368L244.786 703.705C244.43 703.919 244.119 704.201 243.872 704.535C243.624 704.869 243.445 705.248 243.344 705.651C243.244 706.054 243.223 706.473 243.284 706.884C243.346 707.295 243.487 707.69 243.701 708.046C243.915 708.402 244.196 708.713 244.53 708.961C244.864 709.208 245.243 709.387 245.647 709.488C246.05 709.589 246.469 709.609 246.88 709.548C247.291 709.487 247.685 709.345 248.042 709.131L277.216 691.768C277.809 691.399 278.263 690.844 278.507 690.189C278.75 689.535 278.769 688.818 278.562 688.151C278.354 687.484 277.93 686.905 277.358 686.505C276.786 686.104 276.097 685.905 275.399 685.938V685.913ZM294.074 695.402C293.673 695.463 293.288 695.6 292.939 695.806L269.291 709.182C268.927 709.389 268.607 709.666 268.349 709.997C268.092 710.328 267.902 710.706 267.79 711.11C267.679 711.515 267.649 711.937 267.7 712.353C267.752 712.769 267.886 713.171 268.093 713.535C268.3 713.9 268.577 714.22 268.908 714.478C269.238 714.735 269.617 714.925 270.021 715.036C270.425 715.148 270.848 715.178 271.264 715.126C271.68 715.074 272.082 714.941 272.446 714.734L296.093 701.308C296.766 700.961 297.291 700.384 297.573 699.682C297.855 698.98 297.876 698.2 297.631 697.484C297.386 696.768 296.893 696.164 296.24 695.782C295.587 695.4 294.818 695.265 294.074 695.402Z" fill="#111111"/>
</svg>
