<svg width="589" height="144" viewBox="0 0 589 144" fill="none" xmlns="http://www.w3.org/2000/svg">
<path d="M205.388 94.9941V53.6341H220.268V41.6341H176.668V53.6341H191.628V94.9941H205.388ZM234.13 94.9941V70.3541C235.73 68.1941 239.97 66.8341 243.17 66.8341C244.45 66.8341 245.49 66.9941 246.21 67.1541V55.3141C241.57 55.3141 236.69 57.9541 234.13 61.0741V56.3541H221.81V94.9941H234.13ZM286.93 94.9941V70.8341C286.93 58.8341 278.21 55.3941 268.93 55.3941C263.01 55.3941 256.37 57.1541 251.41 61.3941L255.81 69.1541C258.93 66.5141 262.93 65.0741 266.77 65.0741C271.73 65.0741 274.61 67.3141 274.61 70.6741V75.3141C272.29 72.4341 267.73 70.8341 262.61 70.8341C256.69 70.8341 249.33 73.8741 249.33 83.2341C249.33 91.9541 256.69 95.9541 262.61 95.9541C267.57 95.9541 272.21 94.0341 274.61 91.1541V94.9941H286.93ZM267.73 87.8741C264.45 87.8741 261.57 86.4341 261.57 83.3941C261.57 80.3541 264.45 78.9141 267.73 78.9141C270.45 78.9141 273.33 79.8741 274.61 81.6341V85.0741C273.33 86.9141 270.45 87.8741 267.73 87.8741ZM356.833 94.9941V66.9941C356.833 59.0741 352.353 55.3941 345.233 55.3941C339.153 55.3941 334.113 58.9141 331.873 62.2741C330.273 57.7141 326.433 55.3941 320.913 55.3941C314.833 55.3941 309.873 58.8341 308.193 61.0741V56.3541H295.873V94.9941H308.193V70.0341C309.473 68.4341 311.793 66.2741 315.073 66.2741C318.833 66.2741 320.193 68.5141 320.193 71.4741V94.9941H332.513V70.0341C333.713 68.4341 336.113 66.2741 339.473 66.2741C343.153 66.2741 344.593 68.5141 344.593 71.4741V94.9941H356.833ZM389.633 95.9541C399.313 95.9541 406.593 88.7541 406.593 75.6341C406.593 62.5941 399.313 55.3941 389.633 55.3941C385.233 55.3941 381.233 57.1541 378.193 60.8341V56.3541H365.873V109.714H378.193V90.4341C381.393 94.2741 385.313 95.9541 389.633 95.9541ZM385.553 85.0741C382.913 85.0741 379.713 83.5541 378.193 81.5541V69.7941C379.713 67.7141 382.913 66.2741 385.553 66.2741C390.353 66.2741 394.033 69.8741 394.033 75.6341C394.033 81.4741 390.353 85.0741 385.553 85.0741ZM431.462 95.9541C444.742 95.9541 452.582 86.5141 452.582 75.6341C452.582 64.7541 444.742 55.3941 431.462 55.3941C418.342 55.3941 410.422 64.7541 410.422 75.6341C410.422 86.5141 418.342 95.9541 431.462 95.9541ZM431.462 85.0741C426.102 85.0741 423.142 80.8341 423.142 75.6341C423.142 70.5141 426.102 66.2741 431.462 66.2741C436.902 66.2741 439.942 70.5141 439.942 75.6341C439.942 80.8341 436.902 85.0741 431.462 85.0741ZM471.396 94.9941V41.6341H459.076V94.9941H471.396ZM486.486 52.9141C490.406 52.9141 493.526 49.7141 493.526 45.7941C493.526 41.8741 490.406 38.7541 486.486 38.7541C482.566 38.7541 479.446 41.8741 479.446 45.7941C479.446 49.7141 482.566 52.9141 486.486 52.9141ZM492.646 94.9941V56.3541H480.326V94.9941H492.646ZM540.056 94.9941V67.6341C540.056 60.5141 536.056 55.3941 527.256 55.3941C520.776 55.3941 516.216 58.3541 513.896 61.0741V56.3541H501.576V94.9941H513.896V70.0341C515.336 68.2741 517.736 66.2741 521.416 66.2741C525.256 66.2741 527.736 67.9541 527.736 72.6741V94.9941H540.056ZM567.558 95.9541C573.478 95.9541 579.878 94.2741 583.718 90.8341L578.518 83.1541C576.358 85.2341 571.638 86.4341 568.918 86.4341C563.318 86.4341 559.958 83.1541 559.238 79.5541H586.758V76.9141C586.758 63.7941 578.438 55.3941 566.998 55.3941C554.918 55.3941 546.438 64.4341 546.438 75.6341C546.438 88.1941 555.638 95.9541 567.558 95.9541ZM574.998 71.5541H559.078C559.558 68.7541 561.638 64.9141 566.998 64.9141C572.678 64.9141 574.678 68.8341 574.998 71.5541Z" fill="#111111"/>
<path fill-rule="evenodd" clip-rule="evenodd" d="M101.551 9.65199C101.174 9.64307 100.8 9.72957 100.464 9.90347L75.2273 23.3034L50.996 13.2894C50.5412 13.1017 50.0373 13.0686 49.5619 13.1952C49.0865 13.3218 48.6658 13.601 48.3645 13.9899L45.8048 17.295C45.6127 17.543 45.4747 17.8285 45.3997 18.1332C45.3247 18.4378 45.3144 18.7547 45.3694 19.0636C45.4244 19.3725 45.5435 19.6664 45.7191 19.9264C45.8946 20.1864 46.1227 20.4067 46.3886 20.5731L67.7504 33.9147L66.8029 57.7104L34.2281 70.585C33.6873 70.7966 33.2495 71.2095 33.0067 71.737C32.7639 72.2646 32.7349 72.8656 32.9258 73.4141L35.4046 80.4868C35.5062 80.7759 35.6658 81.0411 35.8737 81.2662C36.0817 81.4913 36.3335 81.6714 36.6136 81.7955C36.8938 81.9196 37.1964 81.9851 37.5028 81.9878C37.8092 81.9906 38.113 81.9306 38.3953 81.8115L74.3651 66.6647L107.263 83.7514C107.779 84.0202 108.379 84.0781 108.937 83.9131C109.495 83.7481 109.967 83.373 110.254 82.8668L113.038 77.9451C113.319 77.4496 113.401 76.866 113.267 76.3124C113.134 75.7588 112.795 75.2766 112.32 74.9633L82.8523 55.6088L83.1352 33.9596L107.411 20.0388C107.69 19.8796 107.932 19.6625 108.12 19.402C108.308 19.1415 108.438 18.8436 108.501 18.5287C108.564 18.2137 108.559 17.8888 108.485 17.5761C108.412 17.2633 108.272 16.9699 108.076 16.7157L103.298 10.5232C103.091 10.2567 102.826 10.0403 102.524 9.89029C102.221 9.74024 101.889 9.66032 101.551 9.65648V9.65199ZM100.896 14.7623L102.948 17.4207L79.7897 30.6995C79.4513 30.8927 79.169 31.1707 78.9706 31.5061C78.7722 31.8415 78.6645 32.2228 78.6581 32.6124L78.3527 56.7719C78.3479 57.1485 78.4379 57.5203 78.6145 57.8531C78.7911 58.1858 79.0485 58.4688 79.3631 58.6759L108.094 77.5544L107.411 78.7669L75.4922 62.1876C75.2004 62.0367 74.8791 61.9516 74.5509 61.9384C74.2227 61.9252 73.8956 61.9842 73.5927 62.1112L38.8489 76.7371L37.8834 73.9664L69.8116 61.3478C70.217 61.1877 70.567 60.9131 70.819 60.5575C71.071 60.2018 71.214 59.7806 71.2306 59.345L72.2859 32.7876C72.3008 32.3924 72.211 32.0004 72.0257 31.6511C71.8404 31.3017 71.5661 31.0075 71.2306 30.7982L50.9331 18.1168L74.4863 27.8524C74.7927 27.978 75.1231 28.0343 75.4539 28.0173C75.7846 28.0002 76.1075 27.9101 76.3993 27.7536L100.896 14.7623V14.7623Z" fill="#111111"/>
<path fill-rule="evenodd" clip-rule="evenodd" d="M75.0895 32.5758C75.0066 32.5838 74.9266 32.6101 74.8551 32.6528C74.7837 32.6955 74.7226 32.7536 74.6764 32.8228L69.602 40.0841C69.5598 40.1448 69.53 40.2133 69.5143 40.2855C69.4986 40.3578 69.4973 40.4324 69.5104 40.5052C69.5236 40.578 69.5509 40.6474 69.5909 40.7096C69.6309 40.7718 69.6827 40.8255 69.7434 40.8677C69.8042 40.9099 69.8726 40.9397 69.9449 40.9554C70.0171 40.9711 70.0918 40.9724 70.1645 40.9593C70.2373 40.9461 70.3068 40.9188 70.369 40.8788C70.4312 40.8388 70.4849 40.787 70.5271 40.7263L75.5969 33.4649C75.6606 33.3775 75.6976 33.2736 75.7036 33.1656C75.7096 33.0577 75.6843 32.9503 75.6307 32.8563C75.5771 32.7624 75.4975 32.686 75.4015 32.6362C75.3055 32.5865 75.1971 32.5655 75.0895 32.5758V32.5758ZM74.4024 38.5932C74.3117 38.5978 74.2235 38.6242 74.1453 38.6704C74.0671 38.7165 74.0012 38.781 73.9534 38.8582L69.6155 45.6973C69.5709 45.7592 69.5394 45.8295 69.5229 45.9039C69.5064 45.9783 69.5052 46.0553 69.5194 46.1301C69.5336 46.205 69.563 46.2762 69.6056 46.3394C69.6482 46.4026 69.7033 46.4564 69.7674 46.4976C69.8315 46.5388 69.9033 46.5666 69.9785 46.5791C70.0537 46.5917 70.1306 46.5888 70.2046 46.5706C70.2786 46.5525 70.3482 46.5194 70.409 46.4735C70.4699 46.4276 70.5207 46.3698 70.5585 46.3036L74.9054 39.4644C74.9633 39.3773 74.9958 39.2758 74.9991 39.1713C75.0025 39.0667 74.9765 38.9633 74.9242 38.8728C74.8719 38.7822 74.7954 38.708 74.7032 38.6586C74.611 38.6092 74.5068 38.5866 74.4024 38.5932V38.5932ZM73.666 44.7678C73.5753 44.7723 73.487 44.7988 73.4088 44.845C73.3306 44.8911 73.2648 44.9555 73.2169 45.0327L69.2293 51.2747C69.158 51.3995 69.1374 51.5469 69.1717 51.6865C69.2059 51.8261 69.2924 51.9473 69.4133 52.025C69.5342 52.1027 69.6803 52.1311 69.8215 52.1043C69.9627 52.0775 70.0883 51.9975 70.1723 51.8809L74.16 45.639C74.2173 45.5525 74.2496 45.4519 74.2533 45.3482C74.2569 45.2445 74.2318 45.1419 74.1806 45.0516C74.1294 44.9614 74.0542 44.8871 73.9634 44.837C73.8726 44.7869 73.7696 44.7629 73.666 44.7678V44.7678ZM73.1226 50.4349C72.977 50.4544 72.8448 50.5302 72.7544 50.646L69.0272 55.2713C68.972 55.3269 68.9291 55.3935 68.9012 55.4668C68.8733 55.54 68.8611 55.6182 68.8652 55.6965C68.8694 55.7747 68.8899 55.8512 68.9255 55.9211C68.961 55.9909 69.0108 56.0526 69.0715 56.102C69.1323 56.1515 69.2028 56.1876 69.2784 56.2082C69.354 56.2288 69.4331 56.2333 69.5106 56.2214C69.588 56.2096 69.6621 56.1817 69.7282 56.1395C69.7942 56.0972 69.8506 56.0417 69.8939 55.9763L73.6301 51.351C73.7027 51.2641 73.7474 51.1572 73.7582 51.0444C73.769 50.9315 73.7453 50.8181 73.6904 50.719C73.6355 50.6199 73.5519 50.5397 73.4505 50.489C73.3492 50.4383 73.2349 50.4194 73.1226 50.4349V50.4349ZM72.467 54.6606C72.3227 54.6778 72.1907 54.7502 72.0988 54.8627L69.4044 58.0375C69.3566 58.0938 69.3204 58.159 69.2978 58.2293C69.2753 58.2996 69.2668 58.3737 69.2728 58.4473C69.2788 58.5209 69.2993 58.5926 69.3331 58.6583C69.3668 58.724 69.4132 58.7823 69.4695 58.8301C69.5258 58.8779 69.591 58.9141 69.6613 58.9367C69.7316 58.9592 69.8057 58.9677 69.8793 58.9617C69.9529 58.9557 70.0246 58.9352 70.0903 58.9014C70.1559 58.8677 70.2143 58.8213 70.2621 58.765L72.9475 55.5901C73.0223 55.5053 73.0698 55.3999 73.0837 55.2876C73.0976 55.1753 73.0772 55.0615 73.0252 54.961C72.9733 54.8605 72.8922 54.778 72.7926 54.7244C72.693 54.6708 72.5795 54.6486 72.467 54.6606V54.6606Z" fill="#111111"/>
<path fill-rule="evenodd" clip-rule="evenodd" d="M79.0563 0.249316C76.8469 -0.271594 74.651 0.0831637 72.7605 0.765736C71.1438 1.34951 69.2353 2.25662 67.9914 4.16962C66.2042 7.1424 66.0739 9.90861 66.3389 12.8859C66.7386 14.8618 67.8208 16.7658 69.7338 17.9288H69.7428C72.271 19.4601 75.1674 19.3658 77.5564 18.8494H77.5654C80.0785 18.3024 82.3525 16.9703 84.0588 15.0459C85.4348 13.5273 86.259 11.5894 86.3984 9.54487C86.524 7.42021 85.8781 5.32167 84.5797 3.63523C83.1607 1.80756 81.1309 0.716339 79.0608 0.231354L79.0563 0.249316ZM78.0324 4.61868C79.2 4.88811 80.4035 5.60661 81.0232 6.40594C81.5935 7.13791 81.9617 8.34588 81.9078 9.32034C81.8629 10.196 81.3689 11.3187 80.6909 12.091C79.6066 13.2826 78.1864 14.1171 76.6179 14.4845C74.9564 14.8438 73.0838 14.7225 72.0689 14.1073C71.548 13.793 70.9103 12.832 70.7442 12.0102C70.4244 10.1518 70.7847 8.24042 71.759 6.62598C72.1273 6.06016 73.1242 5.40453 74.2873 4.98691C75.5581 4.52886 76.9726 4.3672 78.0324 4.61868V4.61868Z" fill="#111111"/>
<path fill-rule="evenodd" clip-rule="evenodd" d="M72.0799 8.47727C71.9782 8.48076 71.8793 8.51185 71.7938 8.56723C71.7084 8.6226 71.6397 8.70016 71.5949 8.79161L69.3676 13.2732C69.3272 13.3396 69.301 13.4137 69.2907 13.4907C69.2804 13.5678 69.2862 13.6461 69.3078 13.7208C69.3293 13.7955 69.3662 13.8649 69.4159 13.9246C69.4657 13.9843 69.5273 14.033 69.5969 14.0676C69.6665 14.1022 69.7425 14.1221 69.8202 14.1258C69.8978 14.1295 69.9754 14.1171 70.048 14.0892C70.1205 14.0614 70.1866 14.0188 70.2418 13.9642C70.2971 13.9095 70.3404 13.844 70.369 13.7717L72.6053 9.29007C72.6503 9.20253 72.6715 9.1047 72.6667 9.00639C72.662 8.90808 72.6314 8.81275 72.5782 8.72995C72.525 8.64716 72.4509 8.57982 72.3635 8.53468C72.276 8.48954 72.1782 8.46819 72.0799 8.47278V8.47727ZM73.3238 9.78403C73.2227 9.78996 73.125 9.82314 73.0412 9.88006C72.9574 9.93698 72.8906 10.0155 72.8478 10.1074L70.7372 14.5351C70.6729 14.6697 70.6647 14.8243 70.7144 14.9649C70.7641 15.1056 70.8676 15.2207 71.0022 15.285C71.1367 15.3493 71.2914 15.3576 71.432 15.3079C71.5726 15.2582 71.6878 15.1547 71.7521 15.0201L73.8672 10.5879C73.9109 10.4992 73.9305 10.4006 73.9239 10.302C73.9173 10.2034 73.8848 10.1083 73.8297 10.0263C73.7745 9.94427 73.6987 9.87826 73.6099 9.83493C73.5211 9.79161 73.4224 9.7725 73.3238 9.77954V9.78403ZM74.7428 11.3288C74.6425 11.3355 74.5458 11.3691 74.4628 11.4259C74.3799 11.4828 74.3137 11.5609 74.2713 11.6521L72.7804 14.8539C72.7423 14.9214 72.7185 14.996 72.7106 15.0731C72.7027 15.1502 72.7108 15.2281 72.7345 15.3018C72.7582 15.3756 72.7969 15.4437 72.8481 15.5018C72.8994 15.5599 72.9622 15.6068 73.0325 15.6394C73.1027 15.6721 73.179 15.6898 73.2565 15.6915C73.334 15.6933 73.411 15.6789 73.4826 15.6494C73.5543 15.6199 73.6191 15.5759 73.6729 15.5202C73.7267 15.4644 73.7684 15.3981 73.7953 15.3254L75.2862 12.1371C75.3297 12.0488 75.3492 11.9507 75.3428 11.8525C75.3364 11.7543 75.3043 11.6595 75.2497 11.5776C75.1951 11.4958 75.12 11.4297 75.0318 11.386C74.9436 11.3423 74.8455 11.3226 74.7473 11.3288H74.7428ZM76.593 12.0787C76.4823 12.0875 76.3768 12.1289 76.2897 12.1976C76.2025 12.2664 76.1378 12.3594 76.1035 12.4649L75.0078 15.6263C74.9805 15.6966 74.9677 15.7717 74.97 15.847C74.9724 15.9224 74.9899 15.9965 75.0216 16.065C75.0532 16.1334 75.0983 16.1948 75.1542 16.2454C75.2101 16.296 75.2756 16.3349 75.3468 16.3596C75.4181 16.3844 75.4936 16.3945 75.5688 16.3894C75.644 16.3844 75.7175 16.3642 75.7847 16.3301C75.852 16.2961 75.9117 16.2488 75.9603 16.1911C76.0089 16.1335 76.0454 16.0666 76.0676 15.9945L77.1633 12.8332C77.196 12.7448 77.2059 12.6496 77.1921 12.5564C77.1784 12.4632 77.1414 12.375 77.0846 12.2998C77.0278 12.2247 76.953 12.165 76.8671 12.1264C76.7811 12.0878 76.6869 12.0714 76.593 12.0787V12.0787Z" fill="#111111"/>
<path fill-rule="evenodd" clip-rule="evenodd" d="M92.364 84.9841C77.6258 84.1353 62.7529 84.1398 48.0013 85.4915C36.2449 86.5692 22.9258 85.8193 11.587 91.8951C9.3911 93.0716 6.43628 94.6029 4.00686 96.6507C2.7944 97.67 1.68971 98.8376 0.921818 100.261C0.0869675 101.77 -0.19268 103.525 0.131472 105.219C0.468267 106.871 1.48314 108.227 2.67764 109.094C3.86765 109.956 5.21034 110.441 6.55303 110.796C9.23841 111.515 12.0899 111.744 13.9356 112.188H13.9446C24.6906 114.793 35.706 114.245 46.232 114.42C60.4313 114.658 74.7833 114.636 89.0319 112.938C101.233 111.483 113.699 109.664 125.518 105.439C127.063 104.882 129.771 104.464 132.263 103.629C133.511 103.211 134.746 102.686 135.824 101.761C136.902 100.836 137.75 99.336 137.782 97.6835C137.783 96.8905 137.623 96.1057 137.312 95.3763C137.001 94.6469 136.545 93.9881 135.972 93.4399C134.921 92.425 133.673 91.8053 132.393 91.3068C129.838 90.3099 127.018 89.7845 125.28 89.2007C114.525 85.5858 103.123 85.5993 92.364 84.9796V84.9841ZM92.1125 89.4657C103.038 90.0944 114.009 90.1527 123.843 93.4578C126.106 94.2167 128.81 94.7287 130.763 95.4921C131.738 95.8738 132.488 96.3139 132.86 96.6731C133.233 97.0324 133.296 97.1671 133.291 97.6027C133.282 97.9933 133.246 98.0517 132.896 98.3571C132.273 98.8062 131.58 99.1477 130.844 99.3675C128.922 100.01 126.277 100.396 124 101.209C112.742 105.237 100.613 107.028 88.4976 108.47C74.5947 110.127 60.4448 110.167 46.2994 109.929C35.5848 109.75 24.9106 110.221 14.9999 107.819C12.566 107.235 9.79076 107.01 7.70263 106.454C6.85512 106.258 6.04718 105.92 5.31363 105.452C4.81966 105.093 4.63106 104.842 4.52777 104.325C4.38856 103.643 4.49634 103.104 4.87804 102.394C5.25974 101.685 5.96477 100.876 6.9033 100.086C8.78037 98.5053 11.4837 97.0458 13.7021 95.8603C23.5724 90.5704 36.209 91.0823 48.4144 89.9641C62.8966 88.6394 77.545 88.6304 92.108 89.4657H92.1125Z" fill="#111111"/>
<path fill-rule="evenodd" clip-rule="evenodd" d="M2.92943 104.001C2.33607 104.034 1.77978 104.3 1.38248 104.742C0.985177 105.184 0.779265 105.765 0.809867 106.359L1.90557 135.117C1.92897 135.704 2.18199 136.259 2.61025 136.662C3.0385 137.065 3.60781 137.284 4.19578 137.272L11.4391 137.115C11.7383 137.108 12.0331 137.041 12.3062 136.919C12.5793 136.797 12.8251 136.621 13.0293 136.402C13.2335 136.183 13.3918 135.926 13.4951 135.645C13.5983 135.364 13.6444 135.065 13.6305 134.766L12.5258 109.754C12.5257 109.45 12.464 109.15 12.3447 108.872C12.2254 108.593 12.0508 108.341 11.8315 108.132C11.6122 107.922 11.3528 107.759 11.0689 107.653C10.7849 107.546 10.4824 107.498 10.1794 107.512C9.87647 107.526 9.57943 107.601 9.30622 107.732C9.03301 107.864 8.78929 108.049 8.58976 108.278C8.39022 108.506 8.23902 108.773 8.14526 109.061C8.0515 109.349 8.01713 109.654 8.04423 109.956L9.04114 132.678L6.30636 132.741L5.29149 106.184C5.28351 105.884 5.21562 105.589 5.09183 105.316C4.96804 105.043 4.79085 104.798 4.57071 104.594C4.35057 104.391 4.09193 104.234 3.81005 104.132C3.52817 104.03 3.22874 103.986 2.92943 104.001V104.001ZM64.6842 109.902C64.0915 109.94 63.5381 110.211 63.1451 110.657C62.7521 111.102 62.5514 111.685 62.5871 112.277L63.9926 141.565C64.0083 141.867 64.0848 142.163 64.2175 142.434C64.3502 142.706 64.5365 142.948 64.765 143.146C64.9936 143.344 65.2597 143.494 65.5476 143.586C65.8354 143.679 66.1389 143.712 66.44 143.685L74.6399 142.93C75.2139 142.877 75.7453 142.604 76.124 142.17C76.5027 141.735 76.6997 141.171 76.6741 140.595L75.4302 112.084C75.43 111.781 75.3684 111.481 75.2491 111.202C75.1297 110.923 74.9552 110.672 74.7359 110.462C74.5166 110.253 74.2572 110.09 73.9732 109.983C73.6893 109.877 73.3867 109.829 73.0838 109.843C72.7808 109.856 72.4838 109.931 72.2106 110.063C71.9374 110.194 71.6936 110.38 71.4941 110.608C71.2946 110.837 71.1434 111.103 71.0496 111.392C70.9559 111.68 70.9215 111.984 70.9486 112.286L72.0982 138.66L68.3575 139.001L67.0687 112.066C67.0585 111.767 66.9883 111.472 66.8623 111.2C66.7364 110.928 66.5572 110.684 66.3354 110.482C66.1135 110.28 65.8535 110.125 65.5707 110.025C65.2879 109.926 64.988 109.884 64.6887 109.902H64.6842ZM135.532 95.0245C135.218 95.0095 134.904 95.0608 134.611 95.1749C134.318 95.2891 134.052 95.4636 133.83 95.6872C133.609 95.9107 133.437 96.1784 133.325 96.4727C133.214 96.767 133.166 97.0814 133.184 97.3956L134.212 123.513L130.642 123.558L130.463 103.287C130.457 102.692 130.214 102.123 129.789 101.706C129.364 101.289 128.79 101.058 128.195 101.064C127.599 101.07 127.031 101.313 126.614 101.738C126.197 102.163 125.966 102.737 125.972 103.332L126.17 125.857C126.172 126.153 126.233 126.446 126.349 126.718C126.464 126.99 126.633 127.237 126.845 127.444C127.056 127.651 127.307 127.814 127.582 127.924C127.856 128.034 128.15 128.089 128.446 128.084L136.57 127.972C136.87 127.969 137.167 127.905 137.442 127.785C137.717 127.665 137.966 127.491 138.172 127.273C138.379 127.056 138.54 126.799 138.646 126.518C138.752 126.236 138.8 125.937 138.788 125.637L137.674 97.2204C137.661 96.6518 137.433 96.1093 137.035 95.7025C136.638 95.2957 136.101 95.055 135.532 95.029V95.0245Z" fill="#111111"/>
<path fill-rule="evenodd" clip-rule="evenodd" d="M23.9275 95.7826C23.8373 95.787 23.7495 95.8132 23.6715 95.8589L9.49918 104.279C9.43579 104.317 9.38051 104.367 9.33649 104.426C9.29248 104.486 9.2606 104.553 9.24267 104.625C9.22474 104.697 9.22111 104.771 9.23199 104.844C9.24287 104.917 9.26805 104.988 9.30609 105.051C9.34412 105.115 9.39427 105.17 9.45367 105.214C9.51308 105.258 9.58057 105.29 9.65229 105.308C9.72401 105.326 9.79856 105.329 9.87169 105.318C9.94481 105.307 10.0151 105.282 10.0785 105.244L24.2508 96.8244C24.3613 96.7609 24.4469 96.6617 24.4935 96.5432C24.5401 96.4246 24.545 96.2937 24.5074 96.172C24.4698 96.0502 24.3919 95.9449 24.2865 95.8733C24.1811 95.8018 24.0545 95.7682 23.9275 95.7781V95.7826ZM24.7717 99.5681C24.6815 99.5726 24.5937 99.5988 24.5158 99.6445L15.9567 104.696C15.8894 104.732 15.8301 104.781 15.7823 104.84C15.7344 104.899 15.6991 104.967 15.6784 105.04C15.6577 105.113 15.652 105.19 15.6618 105.265C15.6715 105.34 15.6965 105.413 15.7352 105.478C15.7738 105.544 15.8253 105.601 15.8866 105.646C15.9479 105.691 16.0177 105.723 16.0918 105.74C16.1658 105.757 16.2426 105.759 16.3174 105.745C16.3922 105.732 16.4635 105.704 16.527 105.662L25.0861 100.61C25.1931 100.546 25.2756 100.447 25.3205 100.331C25.3654 100.214 25.3703 100.086 25.3342 99.9667C25.2981 99.8472 25.2232 99.7431 25.1214 99.6709C25.0195 99.5987 24.8965 99.5625 24.7717 99.5681V99.5681ZM27.2954 102.653C27.2048 102.659 27.117 102.687 27.0395 102.734L21.8483 105.819C21.7849 105.857 21.7297 105.907 21.6856 105.967C21.6416 106.026 21.6098 106.093 21.5918 106.165C21.5739 106.237 21.5703 106.311 21.5811 106.385C21.592 106.458 21.6172 106.528 21.6552 106.591C21.6933 106.655 21.7434 106.71 21.8028 106.754C21.8622 106.798 21.9297 106.83 22.0014 106.848C22.0732 106.866 22.1477 106.869 22.2208 106.859C22.294 106.848 22.3642 106.823 22.4276 106.784L27.6188 103.695C27.7243 103.629 27.8051 103.531 27.8484 103.414C27.8917 103.298 27.8952 103.17 27.8582 103.051C27.8212 102.933 27.7459 102.83 27.644 102.758C27.5422 102.687 27.4196 102.652 27.2954 102.658V102.653ZM30.6185 104.342C30.5471 104.352 30.4785 104.377 30.4164 104.413L26.2087 106.793C26.1438 106.83 26.0869 106.88 26.041 106.938C25.9952 106.997 25.9614 107.065 25.9416 107.137C25.9218 107.209 25.9164 107.284 25.9256 107.358C25.9348 107.432 25.9585 107.503 25.9954 107.568C26.0323 107.633 26.0815 107.69 26.1404 107.736C26.1993 107.782 26.2666 107.815 26.3385 107.835C26.4105 107.855 26.4856 107.86 26.5596 107.851C26.6337 107.842 26.7052 107.818 26.77 107.781L30.9777 105.392C31.0973 105.331 31.1908 105.228 31.241 105.103C31.2912 104.978 31.2949 104.839 31.2514 104.712C31.2078 104.585 31.1199 104.477 31.0038 104.409C30.8876 104.341 30.7509 104.317 30.6185 104.342V104.342Z" fill="#111111"/>
</svg>
