<?xml version="1.0" standalone="no"?>
<!DOCTYPE svg PUBLIC "-//W3C//DTD SVG 20010904//EN"
 "http://www.w3.org/TR/2001/REC-SVG-20010904/DTD/svg10.dtd">
<svg version="1.0" xmlns="http://www.w3.org/2000/svg"
 width="142.000000pt" height="155.000000pt" viewBox="0 0 142.000000 155.000000"
 preserveAspectRatio="xMidYMid meet">

<g transform="translate(0.000000,155.000000) scale(0.100000,-0.100000)"
fill="#000000" stroke="none">
<path d="M725 1471 c-62 -26 -84 -124 -36 -162 42 -35 118 -20 158 31 7 8 13
31 13 52 0 63 -71 105 -135 79z m73 -47 c28 -19 28 -45 1 -70 -17 -14 -23 -16
-26 -6 -4 10 -9 8 -19 -5 -13 -17 -14 -17 -7 2 6 17 5 18 -9 7 -19 -15 -25 -7
-24 33 1 21 8 33 26 42 32 16 31 16 58 -3z"/>
<path d="M725 1369 c-4 -6 -5 -12 -2 -15 2 -3 7 2 10 11 7 17 1 20 -8 4z"/>
<path d="M985 1371 c-6 -4 -60 -34 -121 -66 l-111 -58 -129 52 -128 53 -22
-27 c-12 -16 -20 -33 -18 -39 3 -6 52 -40 110 -75 58 -35 107 -67 109 -71 3
-4 2 -59 -2 -122 l-6 -116 -168 -67 c-93 -37 -169 -73 -169 -79 0 -18 21 -79
31 -90 5 -5 86 23 195 69 l187 79 168 -87 c91 -48 171 -87 176 -87 11 0 43 53
43 72 0 7 -68 58 -150 112 l-151 99 3 110 3 110 120 68 c66 38 121 76 123 84
2 9 -8 31 -23 50 -25 34 -51 44 -70 26z m33 -54 c8 -9 -17 -28 -107 -80 l-118
-67 -6 -127 c-3 -69 -3 -131 -1 -137 2 -6 69 -53 149 -105 80 -52 145 -99 145
-104 0 -4 -75 31 -167 79 l-168 87 -178 -76 c-102 -43 -180 -71 -183 -65 -10
16 4 24 169 88 118 46 157 66 157 79 0 9 5 22 12 29 9 9 9 12 -1 12 -10 0 -11
3 -3 13 6 7 9 22 6 34 -3 11 -1 24 5 27 6 4 11 12 11 17 0 6 -4 7 -10 4 -16
-10 -12 13 7 43 17 26 17 26 0 13 -25 -20 -23 9 4 43 11 14 17 26 13 26 -4 0
-13 -8 -20 -17 -12 -16 -13 -16 -14 8 0 22 -14 35 -86 79 -47 29 -83 54 -81
56 2 2 48 -15 103 -37 l99 -41 120 65 c66 36 123 66 126 66 4 1 11 -5 17 -12z"/>
<path d="M535 629 c-259 -14 -320 -24 -412 -69 -45 -22 -91 -52 -102 -66 -21
-27 -21 -23 -2 -289 l6 -90 55 0 55 0 -4 124 c-3 117 -2 123 16 116 10 -5 122
-11 248 -14 l230 -6 10 -145 10 -145 55 4 c30 1 57 5 59 7 3 3 4 67 2 143 l-2
138 113 12 c127 14 284 43 346 65 l41 15 3 -112 3 -112 60 0 60 0 0 38 c-4
259 -5 275 -22 296 -56 69 -444 111 -828 90z m595 -59 c160 -27 245 -69 173
-86 -16 -3 -62 -16 -103 -29 -184 -56 -416 -79 -747 -72 -405 8 -485 37 -340
125 101 61 294 83 692 77 143 -2 289 -9 325 -15z m210 -231 c0 -77 -3 -99 -14
-99 -19 0 -33 175 -16 195 23 27 30 4 30 -96z m-1256 -30 c11 -107 8 -159 -9
-159 -12 0 -15 17 -15 94 0 52 -3 101 -6 110 -4 10 -1 16 9 16 10 0 16 -17 21
-61z m630 -46 c3 -42 6 -98 6 -125 0 -41 -3 -48 -20 -48 -18 0 -20 7 -20 64 0
34 -3 91 -6 125 -6 56 -5 61 13 61 18 0 21 -9 27 -77z"/>
<path d="M160 475 c-41 -25 -71 -45 -66 -45 12 0 146 79 146 85 0 8 -1 7 -80
-40z"/>
<path d="M198 457 c-21 -12 -38 -25 -38 -30 0 -6 71 33 89 49 14 12 -20 0 -51
-19z"/>
<path d="M243 438 c-13 -6 -23 -15 -23 -20 0 -7 31 8 59 29 10 7 -16 1 -36 -9z"/>
<path d="M280 420 l-25 -21 28 12 c15 7 27 16 27 21 0 11 -1 10 -30 -12z"/>
</g>
</svg>
